<svg width="16" height="16" viewBox="0 0 16 16" fill="none" xmlns="http://www.w3.org/2000/svg">
<path d="M4.23926 14.8989V7.98569C4.23926 7.21676 4.23926 6.83229 4.41566 6.50974C4.59135 6.1872 4.91463 5.97912 5.56193 5.56298L7.06101 4.59966C7.43902 4.35703 7.62766 4.23535 7.83935 4.23535C8.05103 4.23535 8.23968 4.35703 8.61841 4.59966L10.1168 5.56298C10.7641 5.97912 11.0873 6.1872 11.263 6.50974C11.4394 6.83229 11.4394 7.21676 11.4394 7.98569V14.8989" stroke="white" stroke-width="1.28" stroke-linecap="round" stroke-linejoin="round"/>
<path d="M7.83984 8.4209H7.84562" stroke="white" stroke-width="1.6" stroke-linecap="round" stroke-linejoin="round"/>
<path d="M14.32 14.9006V10.6975C14.32 9.04799 13.4128 8.91408 11.4399 8.4209M1.35967 14.9006V10.6975C1.35967 9.04799 2.26689 8.91408 4.23974 8.4209M0.639648 14.9006H15.04" stroke="white" stroke-width="1.28" stroke-linecap="round" stroke-linejoin="round"/>
<path d="M7.83984 14.9014V12.0215" stroke="white" stroke-width="1.28" stroke-linecap="round"/>
<path d="M7.83984 4.09985V2.64695M7.83984 2.64695V1.19836C7.83984 0.857096 7.83984 0.686462 7.94497 0.580626C8.27617 0.247279 9.63989 1.03493 10.1583 1.3546C10.5961 1.62387 10.7199 2.16241 10.7199 2.64695H7.83984Z" stroke="white" stroke-linecap="round" stroke-linejoin="round"/>
</svg>
